<svg xmlns="http://www.w3.org/2000/svg" width="487.887" height="420.999" viewBox="0 0 487.887 420.999"><g fill="none" fill-rule="evenodd" transform="translate(-12 -46)"><rect width="512" height="512"/><path fill="#000" d="M350.58527,274.935 L494.38727,423.147 C496.11327,424.901 497.48827,426.988 498.43127,429.29 C499.37527,431.592 499.86927,434.063 499.886724,436.561 C499.90327,439.06 499.44227,441.537 498.52927,443.853 C497.61727,446.168 496.27127,448.275 494.56827,450.053 L484.01727,460.891 C481.05227,464.093 477.13427,466.185 472.88627,466.833 C470.08027,467.219 467.22627,466.93 464.54627,465.99 C461.86627,465.05 459.43427,463.484 457.43927,461.414 L281.83927,280.428 C278.78627,277.287 276.36427,273.556 274.71127,269.449 C273.05827,265.342 272.20827,260.939 272.20827,256.492 C272.20827,252.046 273.05827,247.643 274.71127,243.536 C276.36427,239.429 278.78627,235.698 281.83927,232.557 L457.43927,51.57114 C459.15027,49.80505 461.18227,48.40389 463.41927,47.44793 C465.65527,46.491962 468.05327,46 470.47427,46 C472.89627,46 475.29327,46.491962 477.53027,47.44793 C479.76727,48.40389 481.79927,49.80505 483.50927,51.57114 L494.38727,62.9691 C496.10027,64.7324 497.46027,66.8264 498.38727,69.1317 C499.31527,71.437 499.79227,73.9081 499.79227,76.4037 C499.79227,78.8993 499.31527,81.3705 498.38727,83.6757 C497.46027,85.981 496.10027,88.0753 494.38727,89.8386 L350.58527,238.087 C345.86927,242.987 343.22327,249.609 343.22327,256.511 C343.22327,263.413 345.86927,270.035 350.58527,274.935 Z M161.29527,238.245 L17.5495103,89.9941 C15.8052603,88.2381 14.4165803,86.1424 13.4640303,83.8287 C12.5114813,81.515 12.014039,79.0293 12.0002703,76.5158 C11.9870652,74.0023 12.4578363,71.5109 13.3855003,69.1864 C14.3131603,66.862 15.6793103,64.7507 17.4046103,62.9749 L27.9154703,52.09984 C30.9087703,48.91714 34.8288703,46.830636 39.0787703,46.157981 C41.8829703,45.783403 44.7331703,46.0770996 47.4098703,47.01653 C50.0866703,47.95596 52.5187703,49.51589 54.5190703,51.5766 L230.05127,232.565 C233.10327,235.706 235.52527,239.437 237.17727,243.544 C238.82927,247.651 239.67927,252.054 239.67927,256.501 C239.67927,260.947 238.82927,265.35 237.17727,269.457 C235.52527,273.564 233.10327,277.296 230.05127,280.437 L54.5190703,461.425 C52.8057703,463.192 50.7716703,464.594 48.5328703,465.55 C46.2939703,466.507 43.8943703,466.999 41.4709703,466.999 C39.0475703,466.999 36.6478703,466.507 34.4090703,465.55 C32.1702703,464.594 30.1360703,463.192 28.4228703,461.425 L17.5495103,450.213 C15.8355103,448.447 14.4758603,446.35 13.5482003,444.041 C12.6205493,441.733 12.1431283,439.258 12.1431283,436.76 C12.1431283,434.261 12.6205493,431.787 13.5482003,429.478 C14.4758603,427.17 15.8355103,425.073 17.5495103,423.306 L161.29527,275.093 C166.01027,270.193 168.65527,263.571 168.65527,256.669 C168.65527,249.767 166.01027,243.145 161.29527,238.245 Z"/></g></svg>