<svg xmlns="http://www.w3.org/2000/svg" width="106.034" height="173.875" viewBox="0 0 106.034 173.875"><defs><linearGradient id="a" x1="71.831%" x2="13.937%" y1="15.65%" y2="73.551%"><stop offset="0%" stop-color="#E2D177"/><stop offset="100%" stop-color="#EE448A"/></linearGradient><linearGradient id="b" x1="75.644%" x2="22.6%" y1="21.752%" y2="74.797%"><stop offset="0%" stop-color="#E2D177"/><stop offset="100%" stop-color="#EE448A"/></linearGradient></defs><g fill="none" fill-rule="evenodd" transform="translate(-37.317 -3.292)"><rect width="180" height="180"/><path fill="url(#a)" fill-rule="nonzero" d="M142.197037,24.2731313 L47.2891829,91.4308021 C41.6311463,82.358363 38.6506098,71.8723752 38.6904873,61.180485 C38.6904873,29.2011801 64.8317195,3.29268293 97.1498415,3.29268293 C105.739463,3.26236791 114.230085,5.12667401 122.016183,8.75311426 C129.803378,12.3795216 136.693866,17.6787655 142.197037,24.2731313 Z"/><path fill="url(#b)" fill-rule="nonzero" d="M143.350861,73.4382655 C143.384598,62.7440704 140.40472,52.2566557 134.75228,43.1783996 L87.4082195,76.6467655 L39.8341098,110.26868 L37.3170732,112.065168 L37.4324268,177.166997 C37.4324268,177.166997 100.01272,135.331265 119.735451,119.9709 C134.405451,108.510826 143.350861,92.4683265 143.350861,73.4382655 Z"/></g></svg>