<svg xmlns="http://www.w3.org/2000/svg" width="432" height="322" viewBox="0 0 432 322"><g fill="none" fill-rule="evenodd" transform="translate(-39 -96)"><rect width="512" height="512"/><path fill="#000" d="M434.774954,367.108158 C458.108781,340.266278 470.969135,305.921376 471,270.372743 C470.989712,256.495392 469.02465,242.68897 465.176832,229.355405 C441.194843,145.207981 348.878075,100.393389 267.394869,133.299775 C253.48511,138.918766 241.046575,146.926305 229.009284,155.758674 C214.461651,166.567074 197.876938,169.780452 180.057631,166.567074 C166.302196,164.092691 154.038562,158.267493 142.227612,151.394093 C136.208967,147.91355 131.640969,142.388412 129.35697,135.825761 C128.842556,134.410168 128.492754,132.911209 128.142952,131.405979 C127.896033,130.353253 127.649115,129.297547 127.350754,128.265072 C124.356864,118.173359 117.926687,109.446048 109.171357,103.59731 C100.416028,97.7486744 89.8808259,95.1478532 79.4073533,96.2460143 C68.9338807,97.3441753 59.1702997,102.072035 51.814177,109.609389 C44.4683425,117.146641 39.9826509,127.017755 39.1595883,137.509752 C36.4537697,169.883556 68.6355205,194.541758 99.2328756,183.389507 C103.440784,181.776651 107.947052,181.108893 112.45332,181.432493 C116.9493,181.756092 121.311532,183.063647 125.251945,185.262436 C133.914679,189.728887 142.104153,195.04751 149.707194,201.140181 C168.452447,216.502923 177.670749,235.782161 175.499921,260.320401 C174.121291,277.654754 176.034912,295.093959 181.148189,311.715941 C191.138112,345.834693 213.103597,375.212531 243.011638,394.460931 C272.919678,413.709331 308.774346,421.540268 344.001428,416.516667 C379.218223,411.492038 411.451415,393.951067 434.774954,367.108158 Z M260.56342,230.089034 C252.379719,242.33964 248,256.745102 248,271.482634 C248.020562,291.21972 255.87527,310.141539 269.816347,324.108011 C283.767706,338.073454 302.674522,345.945465 322.414101,346 C337.146819,346.016403 351.560824,341.662483 363.826094,333.487188 C376.091363,325.311893 385.652722,313.684304 391.307289,300.073548 C396.951575,286.462792 398.442325,271.481605 395.584198,257.02474 C392.71579,242.567874 385.63216,229.285076 375.217476,218.857257 C364.802792,208.42841 351.529981,201.323346 337.074851,198.439581 C322.619722,195.556844 307.64026,197.023914 294.017894,202.657794 C280.405809,208.291675 268.757401,217.837401 260.56342,230.089034 Z"/></g></svg>