<svg xmlns="http://www.w3.org/2000/svg" width="47.767" height="47.767" viewBox="0 0 47.767 47.767"><g fill="none" fill-rule="evenodd"><rect width="48" height="48"/><path fill="#000" d="M10.3280466,14.2010641 L7.67386155e-14,14.2010641 L7.67386155e-14,3.87301747 L3.87121278,0.00180469285 L14.2010641,7.67386155e-14 L14.201,9.037 L16.783,9.037 L16.7830757,3.87301747 L20.6542885,0.00180469285 L30.9841398,7.67386155e-14 L30.9841398,10.3280466 L27.1111223,14.2010641 L21.947,14.201 L21.947,16.784 L30.9841398,16.7830757 L30.9841398,27.1111223 L27.1111223,30.9841398 L16.7830757,30.9841398 L16.783,27.111 L14.2010641,27.1111223 L10.3280466,30.9841398 L5.164,30.984 L5.164,33.567 L14.2010641,33.5661514 L14.2010641,43.894198 L10.3280466,47.7672155 L7.67386155e-14,47.7672155 L7.67386155e-14,37.4391689 L3.87121278,33.5679561 L3.873,30.984 L7.67386155e-14,30.9841398 L7.67386155e-14,20.6560932 L3.87121278,16.7848804 L14.2010641,16.7830757 L14.201,25.82 L16.783,25.82 L16.7830757,20.6560932 L20.6542885,16.7848804 L20.656,14.201 L16.7830757,14.2010641 L16.783,10.328 L14.2010641,10.3280466 L10.3280466,14.2010641 Z M47.7672155,7.67386155e-14 L47.7672155,10.3280466 L43.894198,14.2010641 L38.73,14.201 L38.73,16.784 L47.7672155,16.7830757 L47.7672155,27.1111223 L43.894198,30.9841398 L38.73,30.984 L38.73,33.567 L47.7672155,33.5661514 L47.7672155,43.894198 L43.894198,47.7672155 L33.5661514,47.7672155 L33.5661514,37.4391689 L37.4373642,33.5679561 L37.439,30.984 L33.5661514,30.9841398 L33.5661514,20.6560932 L37.4373642,16.7848804 L37.439,14.201 L33.5661514,14.2010641 L33.5661514,3.87301747 L37.4373642,0.00180469285 L47.7672155,7.67386155e-14 Z M9.03704077,38.7301747 L1.29100582,38.7301747 L1.29100582,46.4762097 L9.03704077,46.4762097 L9.03704077,38.7301747 Z M42.6031922,38.7301747 L34.8571573,38.7301747 L34.8571573,46.4762097 L42.6031922,46.4762097 L42.6031922,38.7301747 Z M9.03704077,21.947099 L1.29100582,21.947099 L1.29100582,29.693134 L9.03704077,29.693134 L9.03704077,21.947099 Z M25.8201165,21.947099 L18.0740815,21.947099 L18.0740815,29.693134 L25.8201165,29.693134 L25.8201165,21.947099 Z M42.6031922,21.947099 L34.8571573,21.947099 L34.8571573,29.693134 L42.6031922,29.693134 L42.6031922,21.947099 Z M9.03704077,5.1640233 L1.29100582,5.1640233 L1.29100582,12.9100582 L9.03704077,12.9100582 L9.03704077,5.1640233 Z M25.8201165,5.1640233 L18.0740815,5.1640233 L18.0740815,12.9100582 L25.8201165,12.9100582 L25.8201165,5.1640233 Z M42.6031922,5.1640233 L34.8571573,5.1640233 L34.8571573,12.9100582 L42.6031922,12.9100582 L42.6031922,5.1640233 Z"/></g></svg>